<?xml version="1.0" encoding="UTF-8"?>
<svg width="24px" height="24px" viewBox="0 0 24 24" version="1.1" xmlns="http://www.w3.org/2000/svg" xmlns:xlink="http://www.w3.org/1999/xlink">
    <!-- Generator: Sketch 53.2 (72643) - https://sketchapp.com -->
    <title>Shape</title>
    <desc>Created with Sketch.</desc>
    <g id="Designs" stroke="none" stroke-width="1" fill="none" fill-rule="evenodd">
        <g id="Artboard" transform="translate(-54.000000, -94.000000)" fill="#E7816B" fill-rule="nonzero">
            <g id="Group-33" transform="translate(10.000000, 50.000000)">
                <path d="M56,46.163 C59.204,46.163 59.584,46.175 60.85,46.233 C64.102,46.381 65.621,47.924 65.769,51.152 C65.827,52.417 65.838,52.797 65.838,56.001 C65.838,59.206 65.826,59.585 65.769,60.85 C65.62,64.075 64.105,65.621 60.85,65.769 C59.584,65.827 59.206,65.839 56,65.839 C52.796,65.839 52.416,65.827 51.151,65.769 C47.891,65.62 46.38,64.07 46.232,60.849 C46.174,59.584 46.162,59.205 46.162,56 C46.162,52.796 46.175,52.417 46.232,51.151 C46.381,47.924 47.896,46.38 51.151,46.232 C52.417,46.175 52.796,46.163 56,46.163 L56,46.163 Z M56,44 C52.741,44 52.333,44.014 51.053,44.072 C46.695,44.272 44.273,46.69 44.073,51.052 C44.014,52.333 44,52.741 44,56 C44,59.259 44.014,59.668 44.072,60.948 C44.272,65.306 46.69,67.728 51.052,67.928 C52.333,67.986 52.741,68 56,68 C59.259,68 59.668,67.986 60.948,67.928 C65.302,67.728 67.73,65.31 67.927,60.948 C67.986,59.668 68,59.259 68,56 C68,52.741 67.986,52.333 67.928,51.053 C67.732,46.699 65.311,44.273 60.949,44.073 C59.668,44.014 59.259,44 56,44 Z M56,49.838 C52.597,49.838 49.838,52.597 49.838,56 C49.838,59.403 52.597,62.163 56,62.163 C59.403,62.163 62.162,59.404 62.162,56 C62.162,52.597 59.403,49.838 56,49.838 Z M56,60 C53.791,60 52,58.21 52,56 C52,53.791 53.791,52 56,52 C58.209,52 60,53.791 60,56 C60,58.21 58.209,60 56,60 Z M62.406,48.155 C61.61,48.155 60.965,48.8 60.965,49.595 C60.965,50.39 61.61,51.035 62.406,51.035 C63.201,51.035 63.845,50.39 63.845,49.595 C63.845,48.8 63.201,48.155 62.406,48.155 Z" id="Shape"></path>
            </g>
        </g>
    </g>
</svg>