<?xml version="1.0" encoding="UTF-8"?>
<svg width="24px" height="24px" viewBox="0 0 24 24" version="1.1" xmlns="http://www.w3.org/2000/svg" xmlns:xlink="http://www.w3.org/1999/xlink">
    <!-- Generator: Sketch 53.2 (72643) - https://sketchapp.com -->
    <title>Path</title>
    <desc>Created with Sketch.</desc>
    <g id="Designs" stroke="none" stroke-width="1" fill="none" fill-rule="evenodd">
        <g id="Artboard" transform="translate(-10.000000, -138.000000)" fill="#E7816B" fill-rule="nonzero">
            <g id="Group-33" transform="translate(10.000000, 50.000000)">
                <path d="M12,88 C5.373,88 0,93.372 0,100 C0,105.084 3.163,109.426 7.627,111.174 C7.522,110.225 7.427,108.769 7.669,107.733 C7.887,106.796 9.076,101.768 9.076,101.768 C9.076,101.768 8.717,101.049 8.717,99.986 C8.717,98.318 9.684,97.072 10.888,97.072 C11.911,97.072 12.406,97.841 12.406,98.762 C12.406,99.791 11.751,101.33 11.412,102.757 C11.129,103.951 12.011,104.926 13.189,104.926 C15.322,104.926 16.961,102.677 16.961,99.431 C16.961,96.558 14.897,94.549 11.949,94.549 C8.535,94.549 6.531,97.11 6.531,99.756 C6.531,100.787 6.928,101.894 7.424,102.494 C7.522,102.613 7.536,102.718 7.507,102.839 L7.174,104.199 C7.121,104.419 7,104.466 6.772,104.36 C5.273,103.662 4.336,101.471 4.336,99.711 C4.336,95.926 7.086,92.449 12.265,92.449 C16.428,92.449 19.663,95.416 19.663,99.38 C19.663,103.516 17.056,106.844 13.436,106.844 C12.22,106.844 11.077,106.213 10.686,105.466 L9.938,108.319 C9.667,109.362 8.936,110.669 8.446,111.465 C9.57,111.812 10.763,112 12,112 C18.627,112 24,106.627 24,100 C24,93.372 18.627,88 12,88 Z" id="Path"></path>
            </g>
        </g>
    </g>
</svg>