<?xml version="1.0" encoding="UTF-8"?>
<svg width="24px" height="20px" viewBox="0 0 24 20" version="1.1" xmlns="http://www.w3.org/2000/svg" xmlns:xlink="http://www.w3.org/1999/xlink">
    <!-- Generator: Sketch 53.2 (72643) - https://sketchapp.com -->
    <title>Path</title>
    <desc>Created with Sketch.</desc>
    <g id="Designs" stroke="none" stroke-width="1" fill="none" fill-rule="evenodd">
        <g id="Artboard" transform="translate(-54.000000, -50.000000)" fill="#E7816B" fill-rule="nonzero">
            <g id="Group-33" transform="translate(10.000000, 50.000000)">
                <path d="M68,2.309 C67.117,2.701 66.168,2.965 65.172,3.084 C66.189,2.475 66.97,1.51 67.337,0.36 C66.386,0.924 65.332,1.334 64.21,1.555 C63.313,0.598 62.032,-4.79616347e-14 60.616,-4.79616347e-14 C57.437,-4.79616347e-14 55.101,2.966 55.819,6.045 C51.728,5.84 48.1,3.88 45.671,0.901 C44.381,3.114 45.002,6.009 47.194,7.475 C46.388,7.449 45.628,7.228 44.965,6.859 C44.911,9.14 46.546,11.274 48.914,11.749 C48.221,11.937 47.462,11.981 46.69,11.833 C47.316,13.789 49.134,15.212 51.29,15.252 C49.22,16.875 46.612,17.6 44,17.292 C46.179,18.689 48.768,19.504 51.548,19.504 C60.69,19.504 65.855,11.783 65.543,4.858 C66.505,4.163 67.34,3.296 68,2.309 Z" id="Path"></path>
            </g>
        </g>
    </g>
</svg>